{
	"asset":{
		"generator":"Khronos glTF Blender I/O v4.1.63",
		"version":"2.0"
	},
	"scene":0,
	"scenes":[
		{
			"name":"Scene",
			"nodes":[
				0,
				1
			]
		}
	],
	"nodes":[
		{
			"mesh":0,
			"name":"Cylinder",
			"scale":[
				2.0038340091705322,
				2.0038340091705322,
				2.0038340091705322
			],
			"translation":[
				-0.510312557220459,
				1.4545342922210693,
				-1.3744490146636963
			]
		},
		{
			"mesh":1,
			"name":"Plane",
			"rotation":[
				0.0025416058488190174,
				0.0006261854432523251,
				-0.7302265167236328,
				0.6832000613212585
			],
			"scale":[
				6.700723171234131,
				6.700723171234131,
				6.700722694396973
			],
			"translation":[
				3.9835402965545654,
				22.808420181274414,
				-1.3299916982650757
			]
		}
	],
	"materials":[
		{
			"doubleSided":true,
			"name":"Material.001",
			"pbrMetallicRoughness":{
				"baseColorFactor":[
					0.0824848860502243,
					0.8011330962181091,
					0.09814818203449249,
					1
				],
				"metallicFactor":0,
				"roughnessFactor":0.5
			}
		},
		{
			"doubleSided":true,
			"name":"Material.002",
			"pbrMetallicRoughness":{
				"baseColorFactor":[
					0.8020980358123779,
					0.1786576509475708,
					0.046485353261232376,
					1
				],
				"metallicFactor":0,
				"roughnessFactor":0.5
			}
		}
	],
	"meshes":[
		{
			"name":"Cylinder",
			"primitives":[
				{
					"attributes":{
						"POSITION":0,
						"NORMAL":1,
						"TEXCOORD_0":2
					},
					"indices":3,
					"material":0
				}
			]
		},
		{
			"name":"Plane",
			"primitives":[
				{
					"attributes":{
						"POSITION":4,
						"NORMAL":5,
						"TEXCOORD_0":6
					},
					"indices":7,
					"material":1
				}
			]
		}
	],
	"accessors":[
		{
			"bufferView":0,
			"componentType":5126,
			"count":2944,
			"max":[
				1.2734588384628296,
				11.75641918182373,
				0.6306737661361694
			],
			"min":[
				-0.6306737065315247,
				-1.0792547464370728,
				-0.6306737661361694
			],
			"type":"VEC3"
		},
		{
			"bufferView":1,
			"componentType":5126,
			"count":2944,
			"type":"VEC3"
		},
		{
			"bufferView":2,
			"componentType":5126,
			"count":2944,
			"type":"VEC2"
		},
		{
			"bufferView":3,
			"componentType":5123,
			"count":4596,
			"type":"SCALAR"
		},
		{
			"bufferView":4,
			"componentType":5126,
			"count":5824,
			"max":[
				1.6091337203979492,
				1.1198610067367554,
				1.882206678390503
			],
			"min":[
				-0.30302441120147705,
				-2.6192126274108887,
				-1.8820676803588867
			],
			"type":"VEC3"
		},
		{
			"bufferView":5,
			"componentType":5126,
			"count":5824,
			"type":"VEC3"
		},
		{
			"bufferView":6,
			"componentType":5126,
			"count":5824,
			"type":"VEC2"
		},
		{
			"bufferView":7,
			"componentType":5123,
			"count":8736,
			"type":"SCALAR"
		}
	],
	"bufferViews":[
		{
			"buffer":0,
			"byteLength":35328,
			"byteOffset":0,
			"target":34962
		},
		{
			"buffer":0,
			"byteLength":35328,
			"byteOffset":35328,
			"target":34962
		},
		{
			"buffer":0,
			"byteLength":23552,
			"byteOffset":70656,
			"target":34962
		},
		{
			"buffer":0,
			"byteLength":9192,
			"byteOffset":94208,
			"target":34963
		},
		{
			"buffer":0,
			"byteLength":69888,
			"byteOffset":103400,
			"target":34962
		},
		{
			"buffer":0,
			"byteLength":69888,
			"byteOffset":173288,
			"target":34962
		},
		{
			"buffer":0,
			"byteLength":46592,
			"byteOffset":243176,
			"target":34962
		},
		{
			"buffer":0,
			"byteLength":17472,
			"byteOffset":289768,
			"target":34963
		}
	],
	"buffers":[
		{
			"byteLength":307240,
			"uri":"Palm.bin"
		}
	]
}
